<svg width="105.047852" height="59.313721" viewBox="0 0 105.048 59.3137" fill="none" xmlns="http://www.w3.org/2000/svg" xmlns:xlink="http://www.w3.org/1999/xlink">
	<desc>
			Created with Pixso.
	</desc>
	<defs>
		<filter id="filter_0_721_dd" x="0.000000" y="0.000000" width="105.047852" height="59.313721" filterUnits="userSpaceOnUse" color-interpolation-filters="sRGB">
			<feFlood flood-opacity="0" result="BackgroundImageFix"/>
			<feColorMatrix in="SourceAlpha" type="matrix" values="0 0 0 0 0 0 0 0 0 0 0 0 0 0 0 0 0 0 127 0" result="hardAlpha"/>
			<feOffset dx="0" dy="4"/>
			<feGaussianBlur stdDeviation="1.33333"/>
			<feComposite in2="hardAlpha" operator="out" k2="-1" k3="1"/>
			<feColorMatrix type="matrix" values="0 0 0 0 0 0 0 0 0 0 0 0 0 0 0 0 0 0 0.25 0"/>
			<feBlend mode="normal" in2="BackgroundImageFix" result="effect_dropShadow_1"/>
			<feBlend mode="normal" in="SourceGraphic" in2="effect_dropShadow_1" result="shape"/>
		</filter>
	</defs>
	<g filter="url(#filter_0_721_dd)">
		<path id="Fill 1" d="M40.09 0.25C39.54 0.25 39.09 0.69 39.09 1.25L39.09 5.52C39.09 6.07 39.54 6.52 40.09 6.52L76.42 6.52C86.54 6.52 94.5 14.32 94.5 24.41L94.5 24.41C94.5 24.7 94.73 24.93 95.01 24.93L100.28 24.93C100.56 24.93 100.79 24.7 100.79 24.41L100.79 24.41C100.79 10.92 89.95 0.25 76.42 0.25L40.09 0.25Z" fill="#6B7B84" fill-opacity="1.000000" fill-rule="evenodd"/>
		<path id="Fill 1" d="M39.09 5.52C39.09 6.07 39.54 6.52 40.09 6.52L76.42 6.52C86.54 6.52 94.5 14.32 94.5 24.41C94.5 24.7 94.73 24.93 95.01 24.93L100.28 24.93C100.56 24.93 100.79 24.7 100.79 24.41C100.79 10.92 89.95 0.25 76.42 0.25L40.09 0.25C39.54 0.25 39.09 0.69 39.09 1.25L39.09 5.52Z" stroke="#80949F" stroke-opacity="1.000000" stroke-width="0.500000"/>
		<path id="Fill 3" d="M10.63 25.36L10.63 25.36C10.63 25.12 10.43 24.93 10.19 24.93L4.68 24.93C4.44 24.93 4.25 25.12 4.25 25.36L4.25 25.36C4.25 39.01 14.47 50.28 27.69 51.02L70.03 51.06C70.58 51.06 71.03 50.61 71.03 50.06L71.03 45.48C71.03 44.93 70.58 44.48 70.03 44.48L29.15 44.48C18.91 44.45 10.63 35.94 10.63 25.36Z" fill="#6B7B84" fill-opacity="1.000000" fill-rule="evenodd"/>
		<path id="Fill 3" d="M4.68 24.93C4.44 24.93 4.25 25.12 4.25 25.36C4.25 39.01 14.47 50.28 27.69 51.02L70.03 51.06C70.58 51.06 71.03 50.61 71.03 50.06L71.03 45.48C71.03 44.93 70.58 44.48 70.03 44.48L29.15 44.48C18.91 44.45 10.63 35.94 10.63 25.36C10.63 25.12 10.43 24.93 10.19 24.93L4.68 24.93Z" stroke="#80949F" stroke-opacity="1.000000" stroke-width="0.500000"/>
		<path id="Fill 5" d="M31.66 39.45C34.4 39.45 36.68 38.91 38.93 37.82L39.09 37.67L39.09 29.84L38.25 30.92C36.62 32.69 34.44 33.67 31.98 33.67C27.39 33.67 22.78 30.7 22.78 25.03C22.78 20.74 25.96 16.18 31.82 16.18C32.99 16.18 35.83 16.46 38.24 19.02L39.09 20.06L39.09 12.27L38.94 12.12C36.64 10.97 34.3 10.41 31.63 10.41C27.07 10.41 23.5 11.61 20.66 14.08C18.86 15.63 15.86 19.1 15.86 24.94C15.86 29.27 17.4 32.64 20.69 35.57C23.74 38.25 27.14 39.45 31.66 39.45Z" fill="#6B7B84" fill-opacity="1.000000" fill-rule="evenodd"/>
		<path id="Fill 5" d="M38.93 37.82L39.09 37.67L39.09 29.84L38.25 30.92C36.62 32.69 34.44 33.67 31.98 33.67C27.39 33.67 22.78 30.7 22.78 25.03C22.78 20.74 25.96 16.18 31.82 16.18C32.99 16.18 35.83 16.46 38.24 19.02L39.09 20.06L39.09 12.27L38.94 12.12C36.64 10.97 34.3 10.41 31.63 10.41C27.07 10.41 23.5 11.61 20.66 14.08C18.86 15.63 15.86 19.1 15.86 24.94C15.86 29.27 17.4 32.64 20.69 35.57C23.74 38.25 27.14 39.45 31.66 39.45C34.4 39.45 36.68 38.91 38.93 37.82Z" stroke="#80949F" stroke-opacity="1.000000" stroke-width="0.500000"/>
		<mask id="mask_0_727" fill="white">
			<path id="Fill 6" d="M62.0181 26.7874C60.2617 28.5432 57.7324 29.4753 54.501 29.4753L51.5605 29.4753L51.5605 39.45L44.9019 39.45L44.9019 10.4128L53.6562 10.4128C56.938 10.4128 59.2646 10.8904 61.4453 12.801C64.1055 15.1641 64.502 18.4277 64.502 20.1011C64.502 21.6648 64.1787 24.6311 62.0181 26.7874ZM51.4351 16.9463L52.7993 16.9463C54.0508 16.9463 55.4771 17.0146 56.5566 17.7505C57.084 18.127 57.9683 18.9988 57.9683 20.582C57.9683 21.752 57.4512 22.8013 56.5972 23.4558C55.5581 24.2102 54.3325 24.2075 53.3164 24.2053C53.2617 24.2051 53.208 24.2051 53.1548 24.2051L51.4351 24.2051L51.4351 16.9463Z" clip-rule="evenodd" fill="" fill-opacity="1.000000" fill-rule="evenodd"/>
		</mask>
		<path id="Fill 6" d="M62.0181 26.7874C60.2617 28.5432 57.7324 29.4753 54.501 29.4753L51.5605 29.4753L51.5605 39.45L44.9019 39.45L44.9019 10.4128L53.6562 10.4128C56.938 10.4128 59.2646 10.8904 61.4453 12.801C64.1055 15.1641 64.502 18.4277 64.502 20.1011C64.502 21.6648 64.1787 24.6311 62.0181 26.7874ZM51.4351 16.9463L52.7993 16.9463C54.0508 16.9463 55.4771 17.0146 56.5566 17.7505C57.084 18.127 57.9683 18.9988 57.9683 20.582C57.9683 21.752 57.4512 22.8013 56.5972 23.4558C55.5581 24.2102 54.3325 24.2075 53.3164 24.2053C53.2617 24.2051 53.208 24.2051 53.1548 24.2051L51.4351 24.2051L51.4351 16.9463Z" clip-rule="evenodd" fill="#6B7B84" fill-opacity="1.000000" fill-rule="evenodd" mask="url(#mask_0_727)"/>
		<path id="Fill 6" d="M62.1948 26.9641Q60.8301 28.3286 58.8975 29.0249Q56.9536 29.7253 54.501 29.7253L51.5605 29.7253L51.5605 29.4753L51.8105 29.4753L51.8105 39.7L44.6519 39.7L44.6519 10.1628L53.6562 10.1628Q54.9653 10.1628 55.9771 10.2686Q57.1011 10.3862 58.0317 10.6499Q59.0225 10.9304 59.8892 11.4021Q60.7832 11.8887 61.6099 12.613Q63.4209 14.2214 64.2085 16.6321Q64.5098 17.5535 64.646 18.553Q64.752 19.3301 64.752 20.1011Q64.752 21.7734 64.3105 23.2917Q63.6709 25.4912 62.1948 26.9644L62.1948 26.9641ZM61.8418 26.6104Q63.2266 25.2283 63.8301 23.1521Q64.252 21.7021 64.252 20.1011Q64.252 19.364 64.1504 18.6206Q64.0205 17.6658 63.7334 16.7874Q62.9873 14.5054 61.2803 12.989Q60.4956 12.3015 59.6504 11.8413Q58.8325 11.3962 57.8955 11.1309Q57.0059 10.8789 55.9253 10.7659Q54.939 10.6628 53.6562 10.6628L44.9019 10.6628L44.9019 10.4128L45.1519 10.4128L45.1519 39.45L44.9019 39.45L44.9019 39.2L51.5605 39.2L51.5605 39.45L51.3105 39.45L51.3105 29.2253L54.501 29.2253Q56.8662 29.2253 58.728 28.5547Q60.5557 27.896 61.8413 26.6106L61.8418 26.6104ZM51.4351 16.6963L52.7993 16.6963Q53.3652 16.6963 53.7764 16.7188Q54.3276 16.749 54.7842 16.8259Q55.9263 17.0181 56.6978 17.5439Q57.2925 17.9688 57.6729 18.582Q58.2183 19.4622 58.2183 20.582Q58.2183 21.5103 57.8281 22.3206Q57.4419 23.1233 56.7495 23.6543L56.7466 23.6562L56.7441 23.6582Q56.0088 24.1919 54.9893 24.3608Q54.5996 24.4255 54.1221 24.4451Q53.8423 24.4565 53.3159 24.4553L53.1543 24.4551L51.1851 24.4551L51.1851 16.6963L51.4351 16.6963ZM51.4351 17.1963L51.4351 16.9463L51.6851 16.9463L51.6851 24.2051L51.4351 24.2051L51.4351 23.9551L53.1553 23.9551L53.3169 23.9553Q53.833 23.9565 54.1016 23.9453Q54.5483 23.927 54.9072 23.8677Q55.8105 23.718 56.4502 23.2534L56.5972 23.4558L56.4453 23.2573Q57.043 22.7991 57.3779 22.1038Q57.7183 21.3962 57.7183 20.582Q57.7183 19.6045 57.2476 18.8455Q56.9204 18.3174 56.416 17.957Q55.7354 17.4929 54.7012 17.3188Q53.9722 17.1963 52.7993 17.1963L51.4351 17.1963Z" fill="#80949F" fill-opacity="1.000000" fill-rule="nonzero"/>
		<path id="Fill 7" d="M84.47 24.12C83.02 22.84 81 22.1 78.71 21.32C77.08 20.76 76.18 20.44 75.58 19.89C75.1 19.49 74.89 19.06 74.89 18.48C74.89 17.21 75.75 15.86 78.16 15.86C79.8 15.86 81.17 16.56 82.24 17.95L82.66 18.49L86.18 14.02L85.86 13.7C83.71 11.54 80.87 10.41 77.66 10.41C71.18 10.41 68.28 14.62 68.28 18.8C68.28 21.04 69.08 22.85 70.66 24.17C72.06 25.38 73.78 26.05 75.42 26.6L75.61 26.66C77.07 27.15 78.58 27.65 79.49 28.46C80.11 29.03 80.39 29.66 80.39 30.49C80.39 32.39 78.9 33.67 76.67 33.67C74.91 33.67 72.59 32.8 71.37 30.38L71.05 29.75L66.67 33.79L66.93 34.16C68.33 36.13 71.47 39.45 76.88 39.45C82.84 39.45 87 35.61 87 30.13C87 26.99 85.62 25.13 84.47 24.12Z" fill="#6B7B84" fill-opacity="1.000000" fill-rule="evenodd"/>
		<path id="Fill 7" d="M78.71 21.32C77.08 20.76 76.18 20.44 75.58 19.89C75.1 19.49 74.89 19.06 74.89 18.48C74.89 17.21 75.75 15.86 78.16 15.86C79.8 15.86 81.17 16.56 82.24 17.95L82.66 18.49L86.18 14.02L85.86 13.7C83.71 11.54 80.87 10.41 77.66 10.41C71.18 10.41 68.28 14.62 68.28 18.8C68.28 21.04 69.08 22.85 70.66 24.17C72.06 25.38 73.78 26.05 75.42 26.6L75.61 26.66C77.07 27.15 78.58 27.65 79.49 28.46C80.11 29.03 80.39 29.66 80.39 30.49C80.39 32.39 78.9 33.67 76.67 33.67C74.91 33.67 72.59 32.8 71.37 30.38L71.05 29.75L66.67 33.79L66.93 34.16C68.33 36.13 71.47 39.45 76.88 39.45C82.84 39.45 87 35.61 87 30.13C87 26.99 85.62 25.13 84.47 24.12C83.02 22.84 81 22.1 78.71 21.32Z" stroke="#80949F" stroke-opacity="1.000000" stroke-width="0.500000"/>
	</g>
</svg>
